<svg width="100" height="105" viewBox="0 0 100 105" fill="none" xmlns="http://www.w3.org/2000/svg">
<path fill-rule="evenodd" clip-rule="evenodd" d="M56.1016 56.4237C56.1016 55.0196 57.2398 53.8813 58.6439 53.8813H84.0677C85.4718 53.8813 86.61 55.0196 86.61 56.4237C86.61 57.8278 85.4718 58.9661 84.0677 58.9661H58.6439C57.2398 58.9661 56.1016 57.8278 56.1016 56.4237Z" fill="#004A82"/>
<path fill-rule="evenodd" clip-rule="evenodd" d="M56.1016 71.339C56.1016 69.9349 57.2398 68.7966 58.6439 68.7966H84.0677C85.4718 68.7966 86.61 69.9349 86.61 71.339C86.61 72.7431 85.4718 73.8814 84.0677 73.8814H58.6439C57.2398 73.8814 56.1016 72.7431 56.1016 71.339Z" fill="#004A82"/>
<path fill-rule="evenodd" clip-rule="evenodd" d="M56.1016 85.7457C56.1016 84.3416 57.2398 83.2034 58.6439 83.2034H84.0677C85.4718 83.2034 86.61 84.3416 86.61 85.7457C86.61 87.1499 85.4718 88.2881 84.0677 88.2881H58.6439C57.2398 88.2881 56.1016 87.1499 56.1016 85.7457Z" fill="#004A82"/>
<path fill-rule="evenodd" clip-rule="evenodd" d="M8.13559 43.373C6.26344 43.373 4.74576 44.8906 4.74576 46.7628V95.9153C4.74576 97.7875 6.26344 99.3052 8.1356 99.3052H91.8644C93.7366 99.3052 95.2542 97.7875 95.2542 95.9153V46.7628C95.2542 44.8906 93.7366 43.373 91.8644 43.373H69.5763V38.6272H91.8644C96.3576 38.6272 100 42.2696 100 46.7628V95.9153C100 100.409 96.3576 104.051 91.8644 104.051H8.1356C3.64243 104.051 0 100.409 0 95.9153V46.7628C0 42.2696 3.64243 38.6272 8.13559 38.6272H29.9153V43.373H8.13559Z" fill="#004A82"/>
<circle cx="30.5085" cy="60.8305" r="10.5085" fill="#004A82"/>
<path d="M23.1355 73.1187C23.1355 73.1187 29.5196 75.661 30.7626 75.4915C36.1016 74.9831 36.8643 72.7797 39.8304 73.4576C42.7965 74.1356 45.5083 78.2881 46.3558 80.322C47.2033 82.3559 47.966 85.322 48.2202 88.7966C48.4236 91.5763 46.497 92.2147 45.5083 92.1864H30.7626C29.0959 92.2147 24.5083 92.2542 19.4914 92.1864C14.4744 92.1187 13.1637 90.9153 13.1355 90.322C13.0507 89.1638 13.288 85.5424 14.9151 80.322C16.5422 75.1017 21.0733 73.3446 23.1355 73.1187Z" fill="#004A82"/>
<path d="M46.92 32.12L62.43 16.61L59.35 13.53L46.92 25.96L40.65 19.69L37.57 22.77L46.92 32.12ZM50 44C46.9567 44 44.0967 43.4225 41.42 42.2675C38.7433 41.1125 36.415 39.545 34.435 37.565C32.455 35.585 30.8875 33.2567 29.7325 30.58C28.5775 27.9033 28 25.0433 28 22C28 18.9567 28.5775 16.0967 29.7325 13.42C30.8875 10.7433 32.455 8.415 34.435 6.435C36.415 4.455 38.7433 2.8875 41.42 1.7325C44.0967 0.5775 46.9567 0 50 0C53.0433 0 55.9033 0.5775 58.58 1.7325C61.2567 2.8875 63.585 4.455 65.565 6.435C67.545 8.415 69.1125 10.7433 70.2675 13.42C71.4225 16.0967 72 18.9567 72 22C72 25.0433 71.4225 27.9033 70.2675 30.58C69.1125 33.2567 67.545 35.585 65.565 37.565C63.585 39.545 61.2567 41.1125 58.58 42.2675C55.9033 43.4225 53.0433 44 50 44Z" fill="#A7CD61"/>
</svg>
