<svg width="15" height="15" viewBox="0 0 15 15" fill="none" xmlns="http://www.w3.org/2000/svg">
<path d="M7.08333 10.625C7.28403 10.625 7.45226 10.5571 7.58802 10.4214C7.72379 10.2856 7.79167 10.1174 7.79167 9.91667C7.79167 9.71597 7.72379 9.54774 7.58802 9.41198C7.45226 9.27622 7.28403 9.20833 7.08333 9.20833C6.88264 9.20833 6.71441 9.27622 6.57865 9.41198C6.44288 9.54774 6.375 9.71597 6.375 9.91667C6.375 10.1174 6.44288 10.2856 6.57865 10.4214C6.71441 10.5571 6.88264 10.625 7.08333 10.625ZM6.375 7.79167H7.79167V3.54167H6.375V7.79167ZM7.08333 14.1667C6.10347 14.1667 5.18264 13.9807 4.32083 13.6089C3.45903 13.237 2.70938 12.7323 2.07188 12.0948C1.43438 11.4573 0.929688 10.7076 0.557813 9.84583C0.185938 8.98403 0 8.0632 0 7.08333C0 6.10347 0.185938 5.18264 0.557813 4.32083C0.929688 3.45903 1.43438 2.70938 2.07188 2.07188C2.70938 1.43438 3.45903 0.929688 4.32083 0.557813C5.18264 0.185938 6.10347 0 7.08333 0C8.0632 0 8.98403 0.185938 9.84583 0.557813C10.7076 0.929688 11.4573 1.43438 12.0948 2.07188C12.7323 2.70938 13.237 3.45903 13.6089 4.32083C13.9807 5.18264 14.1667 6.10347 14.1667 7.08333C14.1667 8.0632 13.9807 8.98403 13.6089 9.84583C13.237 10.7076 12.7323 11.4573 12.0948 12.0948C11.4573 12.7323 10.7076 13.237 9.84583 13.6089C8.98403 13.9807 8.0632 14.1667 7.08333 14.1667Z" fill="#242C3D"/>
</svg>
