<svg width="100" height="66" viewBox="0 0 100 66" fill="none" xmlns="http://www.w3.org/2000/svg">
<path fill-rule="evenodd" clip-rule="evenodd" d="M56.1018 17.7965C56.1018 16.3924 57.2401 15.2542 58.6442 15.2542H84.0679C85.472 15.2542 86.6103 16.3924 86.6103 17.7965C86.6103 19.2006 85.472 20.3389 84.0679 20.3389H58.6442C57.2401 20.3389 56.1018 19.2006 56.1018 17.7965Z" fill="#003862"/>
<path fill-rule="evenodd" clip-rule="evenodd" d="M56.1018 32.7118C56.1018 31.3077 57.2401 30.1694 58.6442 30.1694H84.0679C85.472 30.1694 86.6103 31.3077 86.6103 32.7118C86.6103 34.1159 85.472 35.2542 84.0679 35.2542H58.6442C57.2401 35.2542 56.1018 34.1159 56.1018 32.7118Z" fill="#003862"/>
<path fill-rule="evenodd" clip-rule="evenodd" d="M56.1018 47.1185C56.1018 45.7144 57.2401 44.5762 58.6442 44.5762H84.0679C85.472 44.5762 86.6103 45.7144 86.6103 47.1185C86.6103 48.5227 85.472 49.6609 84.0679 49.6609H58.6442C57.2401 49.6609 56.1018 48.5227 56.1018 47.1185Z" fill="#003862"/>
<path fill-rule="evenodd" clip-rule="evenodd" d="M8.13559 4.74576C6.26344 4.74576 4.74576 6.26344 4.74576 8.13559V57.2881C4.74576 59.1603 6.26344 60.678 8.1356 60.678H91.8644C93.7366 60.678 95.2542 59.1603 95.2542 57.2881V8.13559C95.2542 6.26344 93.7366 4.74576 91.8644 4.74576H69.5763V0H91.8644C96.3576 0 100 3.64243 100 8.13559V57.2881C100 61.7813 96.3576 65.4237 91.8644 65.4237H8.1356C3.64243 65.4237 0 61.7813 0 57.2881V8.13559C0 3.64243 3.64243 0 8.13559 0H69.5763V4.74576H8.13559Z" fill="#003862"/>
<circle cx="30.5085" cy="22.2033" r="10.5085" fill="#003862"/>
<path d="M23.1355 34.4915C23.1355 34.4915 29.5196 37.0338 30.7626 36.8643C36.1016 36.3559 36.8643 34.1525 39.8304 34.8304C42.7965 35.5084 45.5083 39.6609 46.3558 41.6948C47.2033 43.7287 47.966 46.6948 48.2202 50.1694C48.4236 52.9491 46.497 53.5875 45.5083 53.5592H30.7626C29.0959 53.5875 24.5083 53.627 19.4914 53.5592C14.4744 53.4915 13.1637 52.2881 13.1355 51.6948C13.0507 50.5367 13.288 46.9152 14.9151 41.6948C16.5422 36.4745 21.0733 34.7174 23.1355 34.4915Z" fill="#003862"/>
</svg>
