<svg width="100" height="104" viewBox="0 0 100 104" fill="none" xmlns="http://www.w3.org/2000/svg">
<path fill-rule="evenodd" clip-rule="evenodd" d="M56.1017 55.4237C56.1017 54.0196 57.2399 52.8813 58.6441 52.8813H84.0678C85.4719 52.8813 86.6102 54.0196 86.6102 55.4237C86.6102 56.8278 85.4719 57.9661 84.0678 57.9661H58.6441C57.2399 57.9661 56.1017 56.8278 56.1017 55.4237Z" fill="#003862"/>
<path fill-rule="evenodd" clip-rule="evenodd" d="M56.1017 70.339C56.1017 68.9349 57.2399 67.7966 58.6441 67.7966H84.0678C85.4719 67.7966 86.6102 68.9349 86.6102 70.339C86.6102 71.7431 85.4719 72.8814 84.0678 72.8814H58.6441C57.2399 72.8814 56.1017 71.7431 56.1017 70.339Z" fill="#003862"/>
<path fill-rule="evenodd" clip-rule="evenodd" d="M56.1017 84.7457C56.1017 83.3416 57.2399 82.2034 58.6441 82.2034H84.0678C85.4719 82.2034 86.6102 83.3416 86.6102 84.7457C86.6102 86.1499 85.4719 87.2881 84.0678 87.2881H58.6441C57.2399 87.2881 56.1017 86.1499 56.1017 84.7457Z" fill="#003862"/>
<path fill-rule="evenodd" clip-rule="evenodd" d="M8.13559 42.373C6.26344 42.373 4.74576 43.8906 4.74576 45.7628V94.9153C4.74576 96.7875 6.26344 98.3052 8.1356 98.3052H91.8644C93.7366 98.3052 95.2542 96.7875 95.2542 94.9153V45.7628C95.2542 43.8906 93.7366 42.373 91.8644 42.373H69.5763V37.6272H91.8644C96.3576 37.6272 100 41.2696 100 45.7628V94.9153C100 99.4085 96.3576 103.051 91.8644 103.051H8.1356C3.64243 103.051 0 99.4085 0 94.9153V45.7628C0 41.2696 3.64243 37.6272 8.13559 37.6272H29.9153V42.373H8.13559Z" fill="#003862"/>
<circle cx="30.5085" cy="59.8305" r="10.5085" fill="#003862"/>
<path d="M23.1356 72.1187C23.1356 72.1187 29.5198 74.661 30.7627 74.4915C36.1017 73.9831 36.8644 71.7797 39.8305 72.4576C42.7966 73.1356 45.5085 77.2881 46.3559 79.322C47.2034 81.3559 47.9661 84.322 48.2203 87.7966C48.4237 90.5763 46.4972 91.2147 45.5085 91.1864H30.7627C29.096 91.2147 24.5085 91.2542 19.4915 91.1864C14.4746 91.1187 13.1638 89.9153 13.1356 89.322C13.0508 88.1638 13.2881 84.5424 14.9152 79.322C16.5424 74.1017 21.0734 72.3446 23.1356 72.1187Z" fill="#003862"/>
<circle cx="49.661" cy="21.3559" r="21.3559" fill="#FF4423"/>
<path fill-rule="evenodd" clip-rule="evenodd" d="M40.1695 31.1865C39.2646 30.2816 39.2646 28.8146 40.1695 27.9097L56.5537 11.5255C57.4585 10.6206 58.9256 10.6206 59.8305 11.5255C60.7354 12.4304 60.7354 13.8975 59.8305 14.8023L43.4463 31.1865C42.5414 32.0914 41.0744 32.0914 40.1695 31.1865Z" fill="white"/>
<path fill-rule="evenodd" clip-rule="evenodd" d="M40.1695 11.5256C41.0744 10.6208 42.5415 10.6208 43.4463 11.5256L59.8305 27.9098C60.7354 28.8147 60.7354 30.2818 59.8305 31.1866C58.9256 32.0915 57.4586 32.0915 56.5537 31.1866L40.1695 14.8025C39.2646 13.8976 39.2646 12.4305 40.1695 11.5256Z" fill="white"/>
</svg>
