<svg width="154" height="101" viewBox="0 0 154 101" fill="none" xmlns="http://www.w3.org/2000/svg">
<path d="M148.387 100.487C151.284 100.248 153.452 97.704 153.074 94.8221C151.018 79.148 145.573 64.0864 137.095 50.6944C127.677 35.8181 114.795 23.4447 99.5514 14.6329C84.308 5.82108 67.1569 0.833082 49.5652 0.0956452C33.7289 -0.568214 17.9599 2.23039 3.35104 8.27082C0.665009 9.38144 -0.457783 12.5299 0.781174 15.1592C2.02013 17.7885 5.15137 18.9016 7.84311 17.8048C20.9091 12.4811 34.987 10.0195 49.1244 10.6121C65.0173 11.2783 80.5122 15.7846 94.2836 23.7455C108.055 31.7064 119.693 42.885 128.202 56.3247C135.771 68.28 140.663 81.708 142.57 95.6874C142.963 98.5673 145.49 100.725 148.387 100.487Z" fill="#7E94B4"/>
</svg>
