<svg width="185" height="72" viewBox="0 0 185 72" fill="none" xmlns="http://www.w3.org/2000/svg">
<g clip-path="url(#clip0_1196_11455)">
<path d="M72.981 33.7964C72.9665 33.5698 72.9472 33.3528 72.9279 33.1358C67.0067 28.4538 61.0806 23.7766 55.1594 19.1042C56.1671 18.135 57.1797 17.1803 58.1971 16.2304C63.0672 21.4766 67.9325 26.7276 72.7977 31.9737C70.6279 13.9545 55.2847 0 36.6868 0C16.5941 0 0.305908 16.2882 0.305908 36.3809C0.305908 48.4983 6.22715 59.2317 15.3356 65.8377C17.3849 49.0431 21.4208 32.5379 27.3806 16.6643C36.5277 20.0975 45.6651 23.5259 54.8122 26.959C49.3635 41.4776 45.776 56.6086 44.1221 71.9952C58.4431 69.0249 69.6828 57.626 72.4265 43.2183C64.6488 51.0828 57.5992 59.6319 51.3646 68.7501C57.2328 56.3386 64.48 44.6167 72.981 33.7916V33.7964ZM57.1894 26.6986C49.9855 23.9984 42.7865 21.2982 35.5778 18.5883C36.2336 17.3587 36.9038 16.1388 37.5885 14.9237C46.0943 19.7214 54.6049 24.524 63.1058 29.3217C56.3648 41.2655 50.9885 53.9229 47.0635 67.0383C48.9006 53.2671 52.2904 39.7369 57.1846 26.6938L57.1894 26.6986ZM49.2767 67.7423C53.221 54.4147 58.6504 41.5596 65.4974 29.4278C58.7951 25.6523 52.0878 21.8671 45.3855 18.0868C46.2341 16.9778 47.0828 15.8687 47.9507 14.779C55.6126 20.8353 63.2746 26.8867 70.9461 32.9333C62.4356 43.7102 55.1738 55.3839 49.2767 67.7423Z" fill="white"/>
<path d="M33.4368 52.7511C33.7888 51.9024 33.8949 51.1502 33.7454 50.4993C33.596 49.8483 33.162 49.154 32.4484 48.4066C31.0211 47.0034 30.0953 45.6485 29.671 44.3321C29.2418 43.0206 29.425 41.4149 30.2158 39.5199C30.9488 37.7551 31.9855 36.4484 33.3163 35.5901C34.6471 34.7318 36.084 34.428 37.627 34.6836L39.0398 31.3035L40.9541 31.8966L39.5317 35.3104C40.8287 36.0241 41.6147 37.1379 41.8944 38.6568C42.1692 40.1757 41.8799 41.9453 41.0216 43.9657L40.9541 44.0332L37.5258 42.9675C38.0417 41.7331 38.2442 40.7157 38.1381 39.925C38.0272 39.1342 37.6367 38.6327 36.9616 38.4205C36.2721 38.2035 35.6501 38.3048 35.0956 38.7195C34.541 39.1342 34.0878 39.7707 33.7261 40.6289C33.3838 41.4487 33.2874 42.1671 33.432 42.7843C33.5767 43.4063 34.0251 44.1103 34.7725 44.8963C36.166 46.3573 37.0725 47.7412 37.492 49.0479C37.9115 50.3498 37.7331 51.9362 36.9568 53.8023C36.1949 55.6297 35.1582 56.9509 33.8467 57.7755C32.5351 58.6 31.0982 58.8797 29.5359 58.6241L28.2389 61.739L26.3246 61.1459L27.6168 58.0455C26.1992 57.3801 25.2493 56.3 24.7671 54.8052C24.2849 53.3104 24.5405 51.4154 25.5338 49.1202L25.5917 49.0479L29.02 50.1135C28.4317 51.5167 28.2582 52.6016 28.4992 53.3635C28.7403 54.1253 29.237 54.622 30.0037 54.8582C30.7318 55.0849 31.3972 55.0077 31.9999 54.6172C32.6027 54.2314 33.08 53.6046 33.4417 52.7463" fill="white"/>
<path d="M87.6635 36.5498L92.7023 36.058C93.0061 37.7504 93.6233 38.9945 94.5491 39.7853C95.4749 40.576 96.7286 40.9763 98.3053 40.9763C99.9737 40.9763 101.232 40.6243 102.076 39.9155C102.92 39.2066 103.344 38.3821 103.344 37.437C103.344 36.8295 103.166 36.3135 102.809 35.8892C102.452 35.4649 101.83 35.0936 100.943 34.7802C100.335 34.568 98.9514 34.1967 96.7961 33.6615C94.0187 32.972 92.0706 32.1282 90.952 31.1252C89.3752 29.7124 88.5893 27.991 88.5893 25.961C88.5893 24.6543 88.9605 23.4295 89.6983 22.2916C90.4408 21.1536 91.5065 20.2857 92.9 19.6926C94.2935 19.0995 95.9763 18.8005 97.9485 18.8005C101.169 18.8005 103.595 19.5045 105.225 20.9173C106.85 22.3301 107.708 24.2155 107.79 26.5734L102.606 26.8C102.385 25.4836 101.907 24.5337 101.179 23.9551C100.451 23.3765 99.3565 23.0872 97.8954 23.0872C96.4344 23.0872 95.2097 23.3958 94.361 24.013C93.8113 24.4084 93.5365 24.9388 93.5365 25.6042C93.5365 26.2117 93.792 26.7325 94.308 27.1616C94.9637 27.7113 96.5501 28.2803 99.0672 28.8782C101.589 29.4713 103.45 30.0885 104.661 30.725C105.866 31.3615 106.816 32.2294 107.496 33.3336C108.176 34.4378 108.518 35.7976 108.518 37.4226C108.518 38.8932 108.108 40.2723 107.293 41.5549C106.478 42.8375 105.321 43.7922 103.826 44.4191C102.332 45.0411 100.47 45.3545 98.2426 45.3545C94.9975 45.3545 92.5094 44.6071 90.7687 43.1075C89.028 41.6079 87.9913 39.4236 87.6538 36.5498H87.6635Z" fill="white"/>
<path d="M136.027 44.9012H130.39L128.148 39.0716H117.892L115.775 44.9012H110.278L120.274 19.2393H125.751L136.027 44.9012ZM126.489 34.7464L122.955 25.2232L119.488 34.7464H126.489Z" fill="white"/>
<path d="M138.794 44.9012V19.2393H149.701C152.445 19.2393 154.437 19.4707 155.681 19.9288C156.925 20.3917 157.918 21.2114 158.665 22.3879C159.413 23.5645 159.784 24.9146 159.784 26.4335C159.784 28.3574 159.22 29.9486 158.087 31.2023C156.954 32.456 155.261 33.2468 153.009 33.5746C154.128 34.2304 155.054 34.944 155.782 35.7252C156.51 36.5063 157.494 37.895 158.733 39.8913L161.867 44.8964H155.671L151.924 39.3127C150.594 37.3164 149.682 36.0579 149.195 35.542C148.708 35.026 148.187 34.6692 147.638 34.4763C147.088 34.2835 146.22 34.187 145.029 34.187H143.978V44.9012H138.794ZM143.978 30.0933H147.811C150.295 30.0933 151.847 29.9872 152.469 29.7798C153.086 29.5677 153.573 29.2109 153.921 28.6949C154.268 28.179 154.446 27.5377 154.446 26.771C154.446 25.9079 154.215 25.2087 153.757 24.6783C153.299 24.1479 152.643 23.8104 151.804 23.6705C151.384 23.6127 150.126 23.5838 148.023 23.5838H143.978V30.0933Z" fill="white"/>
<path d="M164.664 44.9012V19.2393H183.691V23.5789H169.847V29.2687H182.731V33.5939H169.847V40.576H184.183V44.9012H164.669H164.664Z" fill="white"/>
<path d="M94.6167 52.8669C94.6167 53.0549 94.3081 53.5998 93.6861 54.4967C92.8085 55.7696 92.2347 56.6376 91.9695 57.0957C91.3475 58.1468 91.0389 58.9472 91.0389 59.4969C91.0389 60.5336 91.0726 61.6041 91.145 62.7035H89.6936C89.7611 61.662 89.79 60.5867 89.79 59.4825C89.79 58.8797 89.5007 58.0407 88.9221 56.9655C88.5942 56.3676 88.0542 55.4996 87.2971 54.3665C86.7185 53.4889 86.4292 52.9874 86.4292 52.8621H87.977C87.977 52.9923 88.411 53.7975 89.2789 55.2682C90.1469 56.7437 90.5808 57.7129 90.5808 58.1902H90.658C90.658 57.7129 91.0727 56.7533 91.902 55.3164C92.7314 53.8795 93.146 53.0598 93.146 52.8621H94.6119L94.6167 52.8669Z" fill="white"/>
<path d="M102.327 58.2723C102.327 58.4844 102.317 58.7786 102.298 59.1498L97.1046 59.2415C97.1529 59.9744 97.4422 60.5916 97.9581 61.0882C98.474 61.5849 99.1636 61.8308 100.022 61.8308C100.789 61.8308 101.507 61.7392 102.177 61.5511L102.047 62.6168C101.555 62.8145 100.842 62.9109 99.9061 62.9109C98.5946 62.9109 97.5965 62.5541 96.9118 61.8356C96.2222 61.122 95.8799 60.2492 95.8799 59.2174C95.8799 58.118 96.1933 57.1729 96.8201 56.3773C97.447 55.5817 98.2908 55.1863 99.3468 55.1863C100.321 55.1863 101.059 55.4756 101.565 56.0494C102.071 56.6232 102.327 57.3609 102.327 58.2626V58.2723ZM101.063 58.2867C101.063 56.8691 100.47 56.1603 99.2889 56.1603C98.1076 56.1603 97.365 56.898 97.148 58.3687L101.063 58.2867Z" fill="white"/>
<path d="M109.666 60.659C109.666 62.1297 108.725 62.8674 106.845 62.8674C106.011 62.8674 105.239 62.7855 104.516 62.6167L104.752 61.5029C105.408 61.7536 106.117 61.879 106.883 61.879C107.983 61.879 108.532 61.5655 108.532 60.9435C108.532 60.6397 108.407 60.3986 108.166 60.2202C107.92 60.0418 107.515 59.8393 106.951 59.6175C106.237 59.3378 105.717 59.063 105.393 58.8026C104.921 58.4169 104.685 57.9443 104.685 57.3946C104.685 56.8449 104.902 56.329 105.336 55.9143C105.77 55.5045 106.43 55.2971 107.317 55.2971C108.205 55.2971 108.88 55.3694 109.405 55.5141L109.174 56.6038C108.629 56.3869 107.997 56.2808 107.284 56.2808C106.314 56.2808 105.832 56.5604 105.832 57.1198C105.832 57.3994 105.938 57.6309 106.155 57.8045C106.372 57.9781 106.797 58.1902 107.423 58.4362C108.103 58.7062 108.61 58.9666 108.938 59.2221C109.425 59.6223 109.67 60.0949 109.67 60.6494L109.666 60.659Z" fill="white"/>
<path d="M114.092 61.845C114.092 62.5153 113.918 63.1421 113.571 63.7304C113.224 64.3187 112.694 64.9214 111.975 65.5482L111.522 65.0516C112.289 64.1933 112.67 63.4025 112.67 62.6792C112.236 62.5105 112.019 62.1922 112.019 61.7293C112.019 61.4352 112.11 61.1796 112.289 60.9627C112.472 60.7408 112.737 60.6348 113.099 60.6348C113.393 60.6348 113.629 60.7553 113.812 60.9916C113.996 61.2279 114.087 61.5172 114.087 61.8547L114.092 61.845Z" fill="white"/>
<path d="M121.561 62.7084H120.192C120.264 61.7006 120.298 60.5482 120.298 59.2559C120.298 57.7997 120.211 56.575 120.033 55.5913L121.547 55.3888C121.489 56.4399 121.455 57.7322 121.455 59.2607C121.455 60.471 121.489 61.6234 121.561 62.7132V62.7084ZM121.879 53.2623C121.879 53.5179 121.798 53.7445 121.629 53.9326C121.46 54.1206 121.229 54.2171 120.925 54.2171C120.669 54.2171 120.467 54.1351 120.322 53.9712C120.177 53.8072 120.105 53.6095 120.105 53.3781C120.105 53.1273 120.192 52.9055 120.361 52.7223C120.529 52.5342 120.77 52.4426 121.069 52.4426C121.315 52.4426 121.513 52.5246 121.658 52.6885C121.802 52.8525 121.875 53.0454 121.875 53.2672L121.879 53.2623Z" fill="white"/>
<path d="M128.5 61.6619L128.408 62.6455C128.008 62.7902 127.637 62.8625 127.285 62.8625C126.378 62.8625 125.756 62.6311 125.424 62.173C125.091 61.7101 124.922 60.8856 124.922 59.6994C124.922 58.9279 124.927 57.9249 124.937 56.6809C124.657 56.6809 124.237 56.6954 123.688 56.7243L123.731 55.6297C124.209 55.6587 124.638 55.6731 125.019 55.6731C125.019 55.3694 125.043 54.6557 125.096 53.5178L126.282 53.3972C126.195 54.4532 126.152 55.2151 126.152 55.6731C126.644 55.6731 127.372 55.649 128.331 55.596L128.278 56.7195C127.372 56.6905 126.644 56.6761 126.094 56.6761C126.084 57.4379 126.079 58.2914 126.079 59.2461C126.079 60.2828 126.19 60.9724 126.407 61.3051C126.624 61.6378 127.034 61.8065 127.627 61.8065C127.825 61.8065 128.114 61.7583 128.495 61.6571L128.5 61.6619Z" fill="white"/>
<path d="M133.013 53.0694C133.013 53.7396 132.84 54.3664 132.492 54.9547C132.145 55.543 131.615 56.1505 130.896 56.7725L130.443 56.2759C131.21 55.4176 131.591 54.6268 131.591 53.9035C131.157 53.73 130.94 53.4165 130.94 52.9488C130.94 52.6547 131.031 52.3991 131.21 52.1821C131.393 51.9652 131.658 51.8542 132.02 51.8542C132.314 51.8542 132.55 51.9748 132.733 52.2111C132.917 52.4473 133.008 52.7366 133.008 53.0742L133.013 53.0694Z" fill="white"/>
<path d="M140.198 60.659C140.198 62.1297 139.257 62.8674 137.377 62.8674C136.543 62.8674 135.771 62.7855 135.048 62.6167L135.284 61.5029C135.94 61.7536 136.649 61.879 137.415 61.879C138.515 61.879 139.064 61.5655 139.064 60.9435C139.064 60.6397 138.939 60.3986 138.698 60.2202C138.452 60.0418 138.047 59.8393 137.483 59.6175C136.769 59.3378 136.248 59.063 135.925 58.8026C135.453 58.4169 135.217 57.9443 135.217 57.3946C135.217 56.8449 135.434 56.329 135.868 55.9143C136.302 55.5045 136.962 55.2971 137.849 55.2971C138.737 55.2971 139.412 55.3694 139.937 55.5141L139.706 56.6038C139.161 56.3869 138.529 56.2808 137.816 56.2808C136.846 56.2808 136.364 56.5604 136.364 57.1198C136.364 57.3994 136.47 57.6309 136.687 57.8045C136.904 57.9781 137.329 58.1902 137.955 58.4362C138.635 58.7062 139.142 58.9666 139.469 59.2221C139.956 59.6223 140.202 60.0949 140.202 60.6494L140.198 60.659Z" fill="white"/>
<path d="M152.281 52.8669L152.223 53.9904C150.883 53.9326 149.364 53.8988 147.667 53.8988C147.729 54.733 147.758 55.8902 147.758 57.3609C148.944 57.3609 150.092 57.3416 151.211 57.3031V58.3976C150.131 58.359 148.983 58.3398 147.758 58.3398C147.758 60.3119 147.787 61.7681 147.84 62.7084H146.466C146.538 61.1461 146.572 59.4247 146.572 57.5393C146.572 55.7649 146.538 54.2074 146.466 52.8669H152.286H152.281Z" fill="white"/>
<path d="M162.282 62.7082H160.826C160.343 61.2616 159.987 60.3069 159.77 59.8343C159.485 59.2461 159.167 58.8652 158.81 58.6916C158.53 58.5566 158.019 58.4891 157.291 58.4891C156.862 58.4891 156.481 58.4891 156.148 58.5035C156.148 60.1285 156.177 61.5316 156.24 62.7034H154.832C154.909 61.1411 154.948 59.4197 154.948 57.5343C154.948 55.7599 154.909 54.2024 154.832 52.8619H155.898C156.124 52.8619 156.414 52.8523 156.761 52.8378C157.108 52.8234 157.508 52.8137 157.957 52.8137C160.165 52.8137 161.264 53.5756 161.264 55.0945C161.264 56.3578 160.642 57.2498 159.403 57.7609V57.8381C159.958 58.0069 160.406 58.3926 160.748 58.9953C161.038 59.5016 161.549 60.7312 162.282 62.6985V62.7082ZM159.967 55.62C159.967 54.4194 159.157 53.8215 157.532 53.8215C156.954 53.8215 156.467 53.8552 156.071 53.9179C156.105 54.7955 156.124 55.9865 156.124 57.4909C156.428 57.5006 156.717 57.5054 156.992 57.5054C158.974 57.5054 159.962 56.8737 159.962 55.6152L159.967 55.62Z" fill="white"/>
<path d="M171.13 61.5656L171.082 62.7084H164.992C165.064 61.1461 165.098 59.4247 165.098 57.5393C165.098 55.7649 165.064 54.2074 164.992 52.8669H170.706L170.643 53.9904C169.259 53.9326 167.788 53.8988 166.236 53.8988C166.265 54.68 166.284 55.7359 166.284 57.0668C167.624 57.0668 168.82 57.0379 169.867 56.9752V58.0987C168.748 58.0553 167.552 58.0312 166.284 58.0312C166.284 59.3282 166.308 60.5385 166.351 61.6765C168.025 61.6765 169.616 61.6379 171.13 61.5608V61.5656Z" fill="white"/>
<path d="M179.983 61.5656L179.935 62.7084H173.845C173.917 61.1461 173.951 59.4247 173.951 57.5393C173.951 55.7649 173.917 54.2074 173.845 52.8669H179.559L179.496 53.9904C178.112 53.9326 176.641 53.8988 175.089 53.8988C175.118 54.68 175.137 55.7359 175.137 57.0668C176.477 57.0668 177.673 57.0379 178.72 56.9752V58.0987C177.601 58.0553 176.405 58.0312 175.137 58.0312C175.137 59.3282 175.161 60.5385 175.204 61.6765C176.878 61.6765 178.469 61.6379 179.983 61.5608V61.5656Z" fill="white"/>
<path d="M184.241 61.5944C184.241 61.8933 184.139 62.1537 183.942 62.3803C183.744 62.607 183.469 62.7179 183.112 62.7179C182.813 62.7179 182.587 62.6214 182.423 62.4238C182.259 62.2261 182.177 61.9946 182.177 61.7198C182.177 61.4256 182.278 61.1701 182.481 60.9531C182.683 60.7313 182.963 60.6252 183.32 60.6252C183.618 60.6252 183.845 60.7168 184.004 60.9049C184.163 61.0929 184.241 61.3195 184.241 61.5944ZM184.13 53.8842C184.13 54.9692 183.922 56.5555 183.503 58.6482H182.943C182.683 56.5218 182.548 54.9643 182.548 53.9759C182.548 53.1127 182.847 52.6836 183.44 52.6836C183.898 52.6836 184.13 53.0838 184.13 53.8842Z" fill="white"/>
</g>
<defs>
<clipPath id="clip0_1196_11455">
<rect width="183.935" height="72" fill="white" transform="translate(0.305908)"/>
</clipPath>
</defs>
</svg>
