<svg width="100" height="104" viewBox="0 0 100 104" fill="none" xmlns="http://www.w3.org/2000/svg">
<path fill-rule="evenodd" clip-rule="evenodd" d="M56.1016 55.4237C56.1016 54.0196 57.2398 52.8813 58.6439 52.8813H84.0677C85.4718 52.8813 86.61 54.0196 86.61 55.4237C86.61 56.8278 85.4718 57.9661 84.0677 57.9661H58.6439C57.2398 57.9661 56.1016 56.8278 56.1016 55.4237Z" fill="#003862"/>
<path fill-rule="evenodd" clip-rule="evenodd" d="M56.1016 70.339C56.1016 68.9349 57.2398 67.7966 58.6439 67.7966H84.0677C85.4718 67.7966 86.61 68.9349 86.61 70.339C86.61 71.7431 85.4718 72.8814 84.0677 72.8814H58.6439C57.2398 72.8814 56.1016 71.7431 56.1016 70.339Z" fill="#003862"/>
<path fill-rule="evenodd" clip-rule="evenodd" d="M56.1016 84.7457C56.1016 83.3416 57.2398 82.2034 58.6439 82.2034H84.0677C85.4718 82.2034 86.61 83.3416 86.61 84.7457C86.61 86.1499 85.4718 87.2881 84.0677 87.2881H58.6439C57.2398 87.2881 56.1016 86.1499 56.1016 84.7457Z" fill="#003862"/>
<path fill-rule="evenodd" clip-rule="evenodd" d="M8.13559 42.373C6.26344 42.373 4.74576 43.8906 4.74576 45.7628V94.9153C4.74576 96.7875 6.26344 98.3052 8.1356 98.3052H91.8644C93.7366 98.3052 95.2542 96.7875 95.2542 94.9153V45.7628C95.2542 43.8906 93.7366 42.373 91.8644 42.373H69.5763V37.6272H91.8644C96.3576 37.6272 100 41.2696 100 45.7628V94.9153C100 99.4085 96.3576 103.051 91.8644 103.051H8.1356C3.64243 103.051 0 99.4085 0 94.9153V45.7628C0 41.2696 3.64243 37.6272 8.13559 37.6272H29.9153V42.373H8.13559Z" fill="#003862"/>
<circle cx="30.5085" cy="59.8305" r="10.5085" fill="#003862"/>
<path d="M23.1355 72.1187C23.1355 72.1187 29.5196 74.661 30.7626 74.4915C36.1016 73.9831 36.8643 71.7797 39.8304 72.4576C42.7965 73.1356 45.5083 77.2881 46.3558 79.322C47.2033 81.3559 47.966 84.322 48.2202 87.7966C48.4236 90.5763 46.497 91.2147 45.5083 91.1864H30.7626C29.0959 91.2147 24.5083 91.2542 19.4914 91.1864C14.4744 91.1187 13.1637 89.9153 13.1355 89.322C13.0507 88.1638 13.288 84.5424 14.9151 79.322C16.5422 74.1017 21.0733 72.3446 23.1355 72.1187Z" fill="#003862"/>
<circle cx="49.3559" cy="21.3559" r="21.3559" fill="#FCA947"/>
<path d="M37 21.0909C37 21.0909 41.5455 12 49.5 12C57.4545 12 62 21.0909 62 21.0909C62 21.0909 57.4545 30.1818 49.5 30.1818C41.5455 30.1818 37 21.0909 37 21.0909Z" stroke="white" stroke-width="3" stroke-linecap="round" stroke-linejoin="round"/>
<path d="M49.4999 24.5001C51.3827 24.5001 52.909 22.9738 52.909 21.091C52.909 19.2082 51.3827 17.6819 49.4999 17.6819C47.6171 17.6819 46.0908 19.2082 46.0908 21.091C46.0908 22.9738 47.6171 24.5001 49.4999 24.5001Z" stroke="white" stroke-width="3" stroke-linecap="round" stroke-linejoin="round"/>
</svg>
